<mxfile host="app.diagrams.net" agent="Mozilla/5.0 (Windows NT 10.0; Win64; x64) AppleWebKit/537.36 (KHTML, like Gecko) Chrome/129.0.0.0 Safari/537.36" version="24.7.16">
  <diagram name="Страница — 1" id="FIlypT9NXCq33b7IDFKb">
    <mxGraphModel dx="1509" dy="796" grid="1" gridSize="10" guides="1" tooltips="1" connect="1" arrows="1" fold="1" page="1" pageScale="1" pageWidth="827" pageHeight="1169" math="0" shadow="0">
      <root>
        <mxCell id="0" />
        <mxCell id="1" parent="0" />
        <mxCell id="We8vBIHs4mGbIjUNPgg0-11" style="edgeStyle=orthogonalEdgeStyle;rounded=0;orthogonalLoop=1;jettySize=auto;html=1;exitX=0.5;exitY=1;exitDx=0;exitDy=0;entryX=0.5;entryY=0;entryDx=0;entryDy=0;endArrow=none;endFill=0;" parent="1" source="We8vBIHs4mGbIjUNPgg0-7" target="We8vBIHs4mGbIjUNPgg0-8" edge="1">
          <mxGeometry relative="1" as="geometry" />
        </mxCell>
        <mxCell id="We8vBIHs4mGbIjUNPgg0-7" value="Начало long double pow(long double base, long int power)" style="rounded=1;whiteSpace=wrap;html=1;arcSize=50;" parent="1" vertex="1">
          <mxGeometry x="130" y="80" width="140" height="60" as="geometry" />
        </mxCell>
        <mxCell id="We8vBIHs4mGbIjUNPgg0-12" style="edgeStyle=orthogonalEdgeStyle;rounded=0;orthogonalLoop=1;jettySize=auto;html=1;exitX=0.5;exitY=1;exitDx=0;exitDy=0;entryX=0.5;entryY=0;entryDx=0;entryDy=0;endArrow=none;endFill=0;" parent="1" source="We8vBIHs4mGbIjUNPgg0-8" target="We8vBIHs4mGbIjUNPgg0-9" edge="1">
          <mxGeometry relative="1" as="geometry" />
        </mxCell>
        <mxCell id="We8vBIHs4mGbIjUNPgg0-8" value="long double res = 1.0" style="rounded=0;whiteSpace=wrap;html=1;" parent="1" vertex="1">
          <mxGeometry x="130" y="170" width="140" height="60" as="geometry" />
        </mxCell>
        <mxCell id="We8vBIHs4mGbIjUNPgg0-13" style="edgeStyle=orthogonalEdgeStyle;rounded=0;orthogonalLoop=1;jettySize=auto;html=1;exitX=0.5;exitY=1;exitDx=0;exitDy=0;entryX=0.5;entryY=0;entryDx=0;entryDy=0;endArrow=none;endFill=0;" parent="1" source="We8vBIHs4mGbIjUNPgg0-9" target="We8vBIHs4mGbIjUNPgg0-10" edge="1">
          <mxGeometry relative="1" as="geometry" />
        </mxCell>
        <mxCell id="We8vBIHs4mGbIjUNPgg0-16" style="edgeStyle=orthogonalEdgeStyle;rounded=0;orthogonalLoop=1;jettySize=auto;html=1;exitX=1;exitY=0.5;exitDx=0;exitDy=0;entryX=0.5;entryY=0;entryDx=0;entryDy=0;" parent="1" source="We8vBIHs4mGbIjUNPgg0-9" target="We8vBIHs4mGbIjUNPgg0-15" edge="1">
          <mxGeometry relative="1" as="geometry">
            <Array as="points">
              <mxPoint x="280" y="290" />
              <mxPoint x="280" y="430" />
              <mxPoint x="200" y="430" />
            </Array>
          </mxGeometry>
        </mxCell>
        <mxCell id="We8vBIHs4mGbIjUNPgg0-9" value="for (long int i = 0; i &amp;lt; power; i++)" style="shape=hexagon;perimeter=hexagonPerimeter2;whiteSpace=wrap;html=1;fixedSize=1;" parent="1" vertex="1">
          <mxGeometry x="130" y="260" width="140" height="60" as="geometry" />
        </mxCell>
        <mxCell id="We8vBIHs4mGbIjUNPgg0-14" style="edgeStyle=orthogonalEdgeStyle;rounded=0;orthogonalLoop=1;jettySize=auto;html=1;exitX=0.5;exitY=1;exitDx=0;exitDy=0;entryX=0;entryY=0.5;entryDx=0;entryDy=0;" parent="1" source="We8vBIHs4mGbIjUNPgg0-10" target="We8vBIHs4mGbIjUNPgg0-9" edge="1">
          <mxGeometry relative="1" as="geometry">
            <Array as="points">
              <mxPoint x="200" y="420" />
              <mxPoint x="120" y="420" />
              <mxPoint x="120" y="290" />
            </Array>
          </mxGeometry>
        </mxCell>
        <mxCell id="We8vBIHs4mGbIjUNPgg0-10" value="res *= base" style="rounded=0;whiteSpace=wrap;html=1;" parent="1" vertex="1">
          <mxGeometry x="130" y="350" width="140" height="60" as="geometry" />
        </mxCell>
        <mxCell id="We8vBIHs4mGbIjUNPgg0-15" value="return res" style="rounded=1;whiteSpace=wrap;html=1;arcSize=50;" parent="1" vertex="1">
          <mxGeometry x="130" y="440" width="140" height="60" as="geometry" />
        </mxCell>
        <mxCell id="sALvUuvsSmhhuS2si76B-5" style="edgeStyle=orthogonalEdgeStyle;rounded=0;orthogonalLoop=1;jettySize=auto;html=1;exitX=0.5;exitY=1;exitDx=0;exitDy=0;entryX=0.5;entryY=0;entryDx=0;entryDy=0;endArrow=none;endFill=0;" parent="1" source="sALvUuvsSmhhuS2si76B-1" target="sALvUuvsSmhhuS2si76B-2" edge="1">
          <mxGeometry relative="1" as="geometry" />
        </mxCell>
        <mxCell id="sALvUuvsSmhhuS2si76B-1" value="Начало long int fact(long int num)" style="rounded=1;whiteSpace=wrap;html=1;arcSize=50;" parent="1" vertex="1">
          <mxGeometry x="300" y="80" width="140" height="60" as="geometry" />
        </mxCell>
        <mxCell id="sALvUuvsSmhhuS2si76B-6" style="edgeStyle=orthogonalEdgeStyle;rounded=0;orthogonalLoop=1;jettySize=auto;html=1;exitX=0.5;exitY=1;exitDx=0;exitDy=0;entryX=0.5;entryY=0;entryDx=0;entryDy=0;endArrow=none;endFill=0;" parent="1" source="sALvUuvsSmhhuS2si76B-2" target="sALvUuvsSmhhuS2si76B-3" edge="1">
          <mxGeometry relative="1" as="geometry" />
        </mxCell>
        <mxCell id="sALvUuvsSmhhuS2si76B-2" value="long int res = 1" style="rounded=0;whiteSpace=wrap;html=1;" parent="1" vertex="1">
          <mxGeometry x="300" y="170" width="140" height="60" as="geometry" />
        </mxCell>
        <mxCell id="sALvUuvsSmhhuS2si76B-7" style="edgeStyle=orthogonalEdgeStyle;rounded=0;orthogonalLoop=1;jettySize=auto;html=1;exitX=0.5;exitY=1;exitDx=0;exitDy=0;entryX=0.5;entryY=0;entryDx=0;entryDy=0;endArrow=none;endFill=0;" parent="1" source="sALvUuvsSmhhuS2si76B-3" target="sALvUuvsSmhhuS2si76B-4" edge="1">
          <mxGeometry relative="1" as="geometry" />
        </mxCell>
        <mxCell id="sALvUuvsSmhhuS2si76B-11" style="edgeStyle=orthogonalEdgeStyle;rounded=0;orthogonalLoop=1;jettySize=auto;html=1;exitX=1;exitY=0.5;exitDx=0;exitDy=0;entryX=0.5;entryY=0;entryDx=0;entryDy=0;" parent="1" source="sALvUuvsSmhhuS2si76B-3" target="sALvUuvsSmhhuS2si76B-10" edge="1">
          <mxGeometry relative="1" as="geometry">
            <Array as="points">
              <mxPoint x="450" y="290" />
              <mxPoint x="450" y="430" />
              <mxPoint x="370" y="430" />
            </Array>
          </mxGeometry>
        </mxCell>
        <mxCell id="sALvUuvsSmhhuS2si76B-3" value="for (long int i = 1; i &amp;lt;= num; i++)" style="shape=hexagon;perimeter=hexagonPerimeter2;whiteSpace=wrap;html=1;fixedSize=1;" parent="1" vertex="1">
          <mxGeometry x="300" y="260" width="140" height="60" as="geometry" />
        </mxCell>
        <mxCell id="sALvUuvsSmhhuS2si76B-9" style="edgeStyle=orthogonalEdgeStyle;rounded=0;orthogonalLoop=1;jettySize=auto;html=1;exitX=0.5;exitY=1;exitDx=0;exitDy=0;entryX=0;entryY=0.5;entryDx=0;entryDy=0;" parent="1" source="sALvUuvsSmhhuS2si76B-4" target="sALvUuvsSmhhuS2si76B-3" edge="1">
          <mxGeometry relative="1" as="geometry">
            <Array as="points">
              <mxPoint x="370" y="420" />
              <mxPoint x="290" y="420" />
              <mxPoint x="290" y="290" />
            </Array>
          </mxGeometry>
        </mxCell>
        <mxCell id="sALvUuvsSmhhuS2si76B-4" value="res *= i" style="rounded=0;whiteSpace=wrap;html=1;" parent="1" vertex="1">
          <mxGeometry x="300" y="350" width="140" height="60" as="geometry" />
        </mxCell>
        <mxCell id="sALvUuvsSmhhuS2si76B-10" value="return res" style="rounded=1;whiteSpace=wrap;html=1;arcSize=50;" parent="1" vertex="1">
          <mxGeometry x="300" y="440" width="140" height="60" as="geometry" />
        </mxCell>
        <mxCell id="sALvUuvsSmhhuS2si76B-17" style="edgeStyle=orthogonalEdgeStyle;rounded=0;orthogonalLoop=1;jettySize=auto;html=1;exitX=0.5;exitY=1;exitDx=0;exitDy=0;entryX=0.5;entryY=0;entryDx=0;entryDy=0;endArrow=none;endFill=0;" parent="1" source="sALvUuvsSmhhuS2si76B-12" target="sALvUuvsSmhhuS2si76B-13" edge="1">
          <mxGeometry relative="1" as="geometry" />
        </mxCell>
        <mxCell id="sALvUuvsSmhhuS2si76B-12" value="Начало long double sh(long double x, long double acc)" style="rounded=1;whiteSpace=wrap;html=1;arcSize=50;" parent="1" vertex="1">
          <mxGeometry x="470" y="80" width="140" height="60" as="geometry" />
        </mxCell>
        <mxCell id="sALvUuvsSmhhuS2si76B-18" style="edgeStyle=orthogonalEdgeStyle;rounded=0;orthogonalLoop=1;jettySize=auto;html=1;exitX=0.5;exitY=1;exitDx=0;exitDy=0;entryX=0.5;entryY=0;entryDx=0;entryDy=0;endArrow=none;endFill=0;" parent="1" source="sALvUuvsSmhhuS2si76B-13" edge="1">
          <mxGeometry relative="1" as="geometry">
            <mxPoint x="540" y="260" as="targetPoint" />
          </mxGeometry>
        </mxCell>
        <mxCell id="sALvUuvsSmhhuS2si76B-13" value="long double res = 0.0" style="rounded=0;whiteSpace=wrap;html=1;" parent="1" vertex="1">
          <mxGeometry x="470" y="170" width="140" height="60" as="geometry" />
        </mxCell>
        <mxCell id="Q1Bod03skEPiA50_US3j-30" style="edgeStyle=orthogonalEdgeStyle;rounded=0;orthogonalLoop=1;jettySize=auto;html=1;exitX=0.5;exitY=1;exitDx=0;exitDy=0;entryX=0.5;entryY=0;entryDx=0;entryDy=0;endArrow=none;endFill=0;" edge="1" parent="1" source="Q1Bod03skEPiA50_US3j-3" target="Q1Bod03skEPiA50_US3j-27">
          <mxGeometry relative="1" as="geometry" />
        </mxCell>
        <mxCell id="Q1Bod03skEPiA50_US3j-3" value="long double acc" style="rounded=0;whiteSpace=wrap;html=1;" vertex="1" parent="1">
          <mxGeometry x="640" y="260" width="140" height="60" as="geometry" />
        </mxCell>
        <mxCell id="Q1Bod03skEPiA50_US3j-33" style="edgeStyle=orthogonalEdgeStyle;rounded=0;orthogonalLoop=1;jettySize=auto;html=1;exitX=0.5;exitY=1;exitDx=0;exitDy=0;entryX=0.5;entryY=0;entryDx=0;entryDy=0;endArrow=none;endFill=0;" edge="1" parent="1" source="Q1Bod03skEPiA50_US3j-4" target="Q1Bod03skEPiA50_US3j-32">
          <mxGeometry relative="1" as="geometry" />
        </mxCell>
        <mxCell id="Q1Bod03skEPiA50_US3j-4" value="scanf(&quot;%Lf %Lf&quot;, &amp;amp;x, &amp;amp;acc)" style="shape=parallelogram;perimeter=parallelogramPerimeter;whiteSpace=wrap;html=1;fixedSize=1;" vertex="1" parent="1">
          <mxGeometry x="640" y="440" width="140" height="60" as="geometry" />
        </mxCell>
        <mxCell id="Q1Bod03skEPiA50_US3j-28" style="edgeStyle=orthogonalEdgeStyle;rounded=0;orthogonalLoop=1;jettySize=auto;html=1;exitX=0.5;exitY=1;exitDx=0;exitDy=0;entryX=0.5;entryY=0;entryDx=0;entryDy=0;endArrow=none;endFill=0;" edge="1" parent="1" source="Q1Bod03skEPiA50_US3j-5" target="Q1Bod03skEPiA50_US3j-6">
          <mxGeometry relative="1" as="geometry" />
        </mxCell>
        <mxCell id="Q1Bod03skEPiA50_US3j-5" value="Начало" style="rounded=1;whiteSpace=wrap;html=1;arcSize=50;" vertex="1" parent="1">
          <mxGeometry x="640" y="80" width="140" height="60" as="geometry" />
        </mxCell>
        <mxCell id="Q1Bod03skEPiA50_US3j-29" style="edgeStyle=orthogonalEdgeStyle;rounded=0;orthogonalLoop=1;jettySize=auto;html=1;exitX=0.5;exitY=1;exitDx=0;exitDy=0;entryX=0.5;entryY=0;entryDx=0;entryDy=0;endArrow=none;endFill=0;" edge="1" parent="1" source="Q1Bod03skEPiA50_US3j-6" target="Q1Bod03skEPiA50_US3j-3">
          <mxGeometry relative="1" as="geometry" />
        </mxCell>
        <mxCell id="Q1Bod03skEPiA50_US3j-6" value="long double x" style="rounded=0;whiteSpace=wrap;html=1;" vertex="1" parent="1">
          <mxGeometry x="640" y="170" width="140" height="60" as="geometry" />
        </mxCell>
        <mxCell id="Q1Bod03skEPiA50_US3j-15" style="edgeStyle=orthogonalEdgeStyle;rounded=0;orthogonalLoop=1;jettySize=auto;html=1;exitX=0.5;exitY=1;exitDx=0;exitDy=0;entryX=0.5;entryY=0;entryDx=0;entryDy=0;endArrow=none;endFill=0;" edge="1" parent="1" source="Q1Bod03skEPiA50_US3j-8" target="Q1Bod03skEPiA50_US3j-12">
          <mxGeometry relative="1" as="geometry" />
        </mxCell>
        <mxCell id="Q1Bod03skEPiA50_US3j-8" value="long double tmp = 1.0" style="rounded=0;whiteSpace=wrap;html=1;" vertex="1" parent="1">
          <mxGeometry x="470" y="260" width="140" height="60" as="geometry" />
        </mxCell>
        <mxCell id="Q1Bod03skEPiA50_US3j-17" style="edgeStyle=orthogonalEdgeStyle;rounded=0;orthogonalLoop=1;jettySize=auto;html=1;exitX=0.5;exitY=1;exitDx=0;exitDy=0;entryX=0.5;entryY=0;entryDx=0;entryDy=0;endArrow=none;endFill=0;" edge="1" parent="1" source="Q1Bod03skEPiA50_US3j-9" target="Q1Bod03skEPiA50_US3j-11">
          <mxGeometry relative="1" as="geometry" />
        </mxCell>
        <mxCell id="Q1Bod03skEPiA50_US3j-23" style="edgeStyle=orthogonalEdgeStyle;rounded=0;orthogonalLoop=1;jettySize=auto;html=1;exitX=1;exitY=0.5;exitDx=0;exitDy=0;entryX=0.5;entryY=0;entryDx=0;entryDy=0;" edge="1" parent="1" source="Q1Bod03skEPiA50_US3j-9" target="Q1Bod03skEPiA50_US3j-22">
          <mxGeometry relative="1" as="geometry">
            <Array as="points">
              <mxPoint x="620" y="470" />
              <mxPoint x="620" y="790" />
              <mxPoint x="540" y="790" />
            </Array>
          </mxGeometry>
        </mxCell>
        <mxCell id="Q1Bod03skEPiA50_US3j-9" value="tmp &amp;lt; acc" style="rhombus;whiteSpace=wrap;html=1;" vertex="1" parent="1">
          <mxGeometry x="470" y="440" width="140" height="60" as="geometry" />
        </mxCell>
        <mxCell id="Q1Bod03skEPiA50_US3j-18" style="edgeStyle=orthogonalEdgeStyle;rounded=0;orthogonalLoop=1;jettySize=auto;html=1;exitX=0.5;exitY=1;exitDx=0;exitDy=0;entryX=0.5;entryY=0;entryDx=0;entryDy=0;endArrow=none;endFill=0;" edge="1" parent="1" source="Q1Bod03skEPiA50_US3j-11" target="Q1Bod03skEPiA50_US3j-14">
          <mxGeometry relative="1" as="geometry" />
        </mxCell>
        <mxCell id="Q1Bod03skEPiA50_US3j-11" value="tmp = pow(x, 2 * n + 1) / fact(2 * n + 1)" style="rounded=0;whiteSpace=wrap;html=1;" vertex="1" parent="1">
          <mxGeometry x="470" y="530" width="140" height="60" as="geometry" />
        </mxCell>
        <mxCell id="Q1Bod03skEPiA50_US3j-16" style="edgeStyle=orthogonalEdgeStyle;rounded=0;orthogonalLoop=1;jettySize=auto;html=1;exitX=0.5;exitY=1;exitDx=0;exitDy=0;entryX=0.5;entryY=0;entryDx=0;entryDy=0;endArrow=none;endFill=0;" edge="1" parent="1" source="Q1Bod03skEPiA50_US3j-12" target="Q1Bod03skEPiA50_US3j-9">
          <mxGeometry relative="1" as="geometry" />
        </mxCell>
        <mxCell id="Q1Bod03skEPiA50_US3j-12" value="long int n = 0" style="rounded=0;whiteSpace=wrap;html=1;" vertex="1" parent="1">
          <mxGeometry x="470" y="350" width="140" height="60" as="geometry" />
        </mxCell>
        <mxCell id="Q1Bod03skEPiA50_US3j-13" value="n++" style="rounded=0;whiteSpace=wrap;html=1;" vertex="1" parent="1">
          <mxGeometry x="470" y="710" width="140" height="60" as="geometry" />
        </mxCell>
        <mxCell id="Q1Bod03skEPiA50_US3j-19" style="edgeStyle=orthogonalEdgeStyle;rounded=0;orthogonalLoop=1;jettySize=auto;html=1;exitX=0.5;exitY=1;exitDx=0;exitDy=0;entryX=0;entryY=0.5;entryDx=0;entryDy=0;" edge="1" parent="1" source="Q1Bod03skEPiA50_US3j-13" target="Q1Bod03skEPiA50_US3j-9">
          <mxGeometry relative="1" as="geometry">
            <Array as="points">
              <mxPoint x="540" y="780" />
              <mxPoint x="460" y="780" />
              <mxPoint x="460" y="470" />
            </Array>
          </mxGeometry>
        </mxCell>
        <mxCell id="Q1Bod03skEPiA50_US3j-20" style="edgeStyle=orthogonalEdgeStyle;rounded=0;orthogonalLoop=1;jettySize=auto;html=1;exitX=0.5;exitY=1;exitDx=0;exitDy=0;entryX=0.5;entryY=0;entryDx=0;entryDy=0;endArrow=none;endFill=0;" edge="1" parent="1" source="Q1Bod03skEPiA50_US3j-14" target="Q1Bod03skEPiA50_US3j-13">
          <mxGeometry relative="1" as="geometry" />
        </mxCell>
        <mxCell id="Q1Bod03skEPiA50_US3j-14" value="res += tmp" style="rounded=0;whiteSpace=wrap;html=1;" vertex="1" parent="1">
          <mxGeometry x="470" y="620" width="140" height="60" as="geometry" />
        </mxCell>
        <mxCell id="Q1Bod03skEPiA50_US3j-22" value="return res" style="rounded=1;whiteSpace=wrap;html=1;arcSize=50;" vertex="1" parent="1">
          <mxGeometry x="470" y="800" width="140" height="60" as="geometry" />
        </mxCell>
        <mxCell id="Q1Bod03skEPiA50_US3j-24" value="нет" style="text;html=1;align=center;verticalAlign=middle;whiteSpace=wrap;rounded=0;" vertex="1" parent="1">
          <mxGeometry x="530" y="490" width="60" height="30" as="geometry" />
        </mxCell>
        <mxCell id="Q1Bod03skEPiA50_US3j-25" value="да" style="text;html=1;align=center;verticalAlign=middle;whiteSpace=wrap;rounded=0;" vertex="1" parent="1">
          <mxGeometry x="580" y="440" width="60" height="30" as="geometry" />
        </mxCell>
        <mxCell id="Q1Bod03skEPiA50_US3j-31" style="edgeStyle=orthogonalEdgeStyle;rounded=0;orthogonalLoop=1;jettySize=auto;html=1;exitX=0.5;exitY=1;exitDx=0;exitDy=0;entryX=0.5;entryY=0;entryDx=0;entryDy=0;endArrow=none;endFill=0;" edge="1" parent="1" source="Q1Bod03skEPiA50_US3j-27" target="Q1Bod03skEPiA50_US3j-4">
          <mxGeometry relative="1" as="geometry" />
        </mxCell>
        <mxCell id="Q1Bod03skEPiA50_US3j-27" value="long double res = 0.0" style="rounded=0;whiteSpace=wrap;html=1;" vertex="1" parent="1">
          <mxGeometry x="640" y="350" width="140" height="60" as="geometry" />
        </mxCell>
        <mxCell id="Q1Bod03skEPiA50_US3j-35" style="edgeStyle=orthogonalEdgeStyle;rounded=0;orthogonalLoop=1;jettySize=auto;html=1;exitX=0.5;exitY=1;exitDx=0;exitDy=0;entryX=0.5;entryY=0;entryDx=0;entryDy=0;endArrow=none;endFill=0;" edge="1" parent="1" source="Q1Bod03skEPiA50_US3j-32" target="Q1Bod03skEPiA50_US3j-34">
          <mxGeometry relative="1" as="geometry" />
        </mxCell>
        <mxCell id="Q1Bod03skEPiA50_US3j-32" value="res = sh(x, acc)" style="shape=process;whiteSpace=wrap;html=1;backgroundOutline=1;" vertex="1" parent="1">
          <mxGeometry x="640" y="530" width="140" height="60" as="geometry" />
        </mxCell>
        <mxCell id="Q1Bod03skEPiA50_US3j-37" style="edgeStyle=orthogonalEdgeStyle;rounded=0;orthogonalLoop=1;jettySize=auto;html=1;exitX=0.5;exitY=1;exitDx=0;exitDy=0;entryX=0.5;entryY=0;entryDx=0;entryDy=0;endArrow=none;endFill=0;" edge="1" parent="1" source="Q1Bod03skEPiA50_US3j-34" target="Q1Bod03skEPiA50_US3j-36">
          <mxGeometry relative="1" as="geometry" />
        </mxCell>
        <mxCell id="Q1Bod03skEPiA50_US3j-34" value="printf(&quot;%Lf&quot;, res)" style="shape=parallelogram;perimeter=parallelogramPerimeter;whiteSpace=wrap;html=1;fixedSize=1;" vertex="1" parent="1">
          <mxGeometry x="640" y="620" width="140" height="60" as="geometry" />
        </mxCell>
        <mxCell id="Q1Bod03skEPiA50_US3j-36" value="Конец" style="rounded=1;whiteSpace=wrap;html=1;arcSize=50;" vertex="1" parent="1">
          <mxGeometry x="640" y="710" width="140" height="60" as="geometry" />
        </mxCell>
      </root>
    </mxGraphModel>
  </diagram>
</mxfile>
